<?xml version="1.0" encoding="UTF-8"?>
<svg width="79px" height="47px" viewBox="0 0 79 47" version="1.1" xmlns="http://www.w3.org/2000/svg" xmlns:xlink="http://www.w3.org/1999/xlink">
    <!-- Generator: sketchtool 61.2 (101010) - https://sketch.com -->
    <title>C64D51EF-4AA9-45F3-935C-21857E666AE6</title>
    <desc>Created with sketchtool.</desc>
    <g id="Welcome" stroke="none" stroke-width="1" fill="none" fill-rule="evenodd">
        <g id="Accounting-Page" transform="translate(-367.000000, -6591.000000)" fill="#089BD9" fill-rule="nonzero">
            <g id="Contact-Us" transform="translate(0.000000, 6359.000000)">
                <g id="mail" transform="translate(367.000000, 232.000000)">
                    <path d="M27.1998917,31 L12.7999536,31 C11.7199196,31 11,31.6000773 11,32.5 C11,33.3999227 11.7200743,34 12.7999536,34 L27.2000464,34 C28.2800804,34 29,33.3999227 29,32.5 C29,31.6000773 28.2799257,31 27.1998917,31 Z" id="Shape"></path>
                    <path d="M22.2000464,22 L7.79995359,22 C6.71991956,22 6,22.6000773 6,23.5 C6,24.3999227 6.72007425,25 7.79995359,25 L22.2000464,25 C23.2800804,25 24,24.3999227 24,23.5 C24,22.6000773 23.2800804,22 22.2000464,22 Z" id="Shape"></path>
                    <path d="M16.2000464,13 L1.79995359,13 C0.72007425,13 0,13.5999484 0,14.5 C0,15.4000516 0.72007425,16 1.79995359,16 L16.2000464,16 C17.2800804,16 18,15.3999227 18,14.5 C18,13.6000773 17.2800804,13 16.2000464,13 Z" id="Shape"></path>
                    <path d="M70.6893502,7.74228617 C70.1551326,7.00858842 68.9087269,6.8252822 68.1963858,7.3755161 L49.3212587,22.2315163 C47.3625118,23.6987542 44.6914239,23.6987542 42.7326771,22.2315163 L23.8575499,7.3755161 C23.1452088,6.8252822 21.8988031,6.8252822 21.3645855,7.74228617 C20.8303679,8.47598391 20.8303679,9.75975795 21.7206796,10.3099919 L40.7739302,25.1659921 C42.376583,26.4497661 44.3353298,27 46.1159531,27 C47.8965764,27 50.0334468,26.4497661 51.457976,25.1659921 L70.3332562,10.3099919 C71.0455973,9.75975795 71.2235678,8.47598391 70.6893502,7.74228617 Z" id="Shape"></path>
                    <path d="M73.6666794,0 L16.7777226,0 C15.7110279,0 15,0.723151013 15,1.80764451 C15,2.892138 15.7110279,3.61544437 16.7777226,3.61544437 L73.6666794,3.61544437 C74.7333741,3.61544437 75.444402,4.33859538 75.444402,5.42308887 L75.444402,41.5770665 C75.444402,42.6617153 74.7332213,43.384711 73.6666794,43.384711 L16.7777226,43.384711 C15.7110279,43.384711 15,44.107862 15,45.1923555 C15,46.2770043 15.7111807,47 16.7777226,47 L73.6666794,47 C76.6889301,47 79,44.6500311 79,41.5769111 L79,5.42308887 C79,2.35012428 76.6889301,0 73.6666794,0 Z" id="Shape"></path>
                    <path d="M72.437565,36.8124824 L61.187575,25.5625529 C60.4375005,24.8124824 59.3126304,24.8124824 58.5625559,25.5625529 C57.8124814,26.3126234 57.8124814,27.4374874 58.5625559,28.1875579 L69.8125458,39.4374874 C70.1875025,39.8124421 70.7500181,40 71.1249748,40 C71.4999315,40 72.0624471,39.8124421 72.437565,39.4374874 C73.1874783,38.687578 73.1874783,37.5625529 72.437565,36.8124824 Z" id="Shape"></path>
                </g>
            </g>
        </g>
    </g>
</svg>