<?xml version="1.0" encoding="UTF-8"?>
<svg width="39px" height="34px" viewBox="0 0 39 34" version="1.1" xmlns="http://www.w3.org/2000/svg" xmlns:xlink="http://www.w3.org/1999/xlink">
    <!-- Generator: sketchtool 61.2 (101010) - https://sketch.com -->
    <title>3AE968B8-F12E-4528-AF1B-E1F8F61D41B8</title>
    <desc>Created with sketchtool.</desc>
    <g id="Welcome" stroke="none" stroke-width="1" fill="none" fill-rule="evenodd">
        <g id="Accounting-Page" transform="translate(-1034.000000, -6906.000000)" fill="#FFFFFF" fill-rule="nonzero">
            <g id="Contact-Us" transform="translate(0.000000, 6359.000000)">
                <g id="paper-plane" transform="translate(1022.000000, 531.000000)">
                    <path d="M12.0034327,33.0045171 C12.0511603,33.8176596 12.5841192,34.5019874 13.3557165,34.7354639 L27.6421972,39.1071111 L28.1672015,49.0741447 C28.1910653,49.4686396 28.4535675,49.8148289 28.8274342,49.9436436 C28.9308441,49.9838982 29.0422087,50 29.1456186,50 C29.42403,50 29.6865321,49.8872872 29.8774428,49.6699125 L34.9286205,44.0101188 L42.0877701,49.0258392 C42.4059545,49.2512648 42.7798212,49.3720286 43.1695972,49.3720286 C44.0684682,49.3720286 44.84802,48.7279553 45.0389307,47.8262528 L50.9810248,17.1764169 C51.0526163,16.8221766 50.9173879,16.4518345 50.6469312,16.2264089 C50.3685198,15.9929323 49.9946531,15.9365759 49.6605595,16.0734415 L13.1488966,31.1125519 C12.4091178,31.4506904 11.955705,32.1913746 12.0034327,33.0045171 Z M29.9808527,46.6025136 L29.6547137,40.3147485 L33.3138346,42.8749397 L29.9808527,46.6025136 Z M43.1377787,47.3673506 L30.1081265,38.2376122 L48.3798671,20.3484777 L43.1377787,47.3673506 Z M46.3753053,19.5594879 L28.3103845,37.2473496 L14.039813,32.8837533 L46.3753053,19.5594879 Z" id="Shape"></path>
                </g>
            </g>
        </g>
    </g>
</svg>