<?xml version="1.0" encoding="UTF-8"?>
<svg width="39px" height="40px" viewBox="0 0 39 40" version="1.1" xmlns="http://www.w3.org/2000/svg" xmlns:xlink="http://www.w3.org/1999/xlink">
    <!-- Generator: sketchtool 61.2 (101010) - https://sketch.com -->
    <title>D3ABA695-FA03-4F01-9443-407651F71600</title>
    <desc>Created with sketchtool.</desc>
    <g id="Welcome" stroke="none" stroke-width="1" fill="none" fill-rule="evenodd">
        <g id="Accounting-Page" transform="translate(-982.000000, -1050.000000)" fill="#089BD9" fill-rule="nonzero">
            <g id="Services" transform="translate(0.000000, 822.000000)">
                <g id="Third" transform="translate(900.000000, 228.000000)">
                    <g id="Chat-Icon" transform="translate(82.000000, 0.000000)">
                        <path d="M38.9539641,18.2843137 C38.1748202,7.84313725 29.5555402,0 19.4753653,0 C18.4040424,0 17.284023,0.0980392157 16.1640035,0.294117647 C6.42470415,1.96078431 -0.636287907,10.9313725 0.0454630503,20.8823529 C0.386338529,26.2745098 2.86985987,30.9803922 6.57079364,34.2647059 C5.5968637,35.9313725 4.86641625,36.9117647 3.35682484,38.2843137 C2.67507389,38.872549 3.11334236,40 3.9898793,40 L4.28205829,40 C6.81427613,40 10.1743344,39.3627451 12.5117663,37.9411765 C14.7031086,38.7254902 17.0405405,39.1666667 19.4753653,39.1666667 C20.5953848,39.1666667 21.7641007,39.0686275 22.9328166,38.872549 C32.672116,37.1568627 39.6357151,28.1862745 38.9539641,18.2843137 Z M33.256474,30.4411765 C30.5781666,33.872549 26.7798399,36.2254902 22.5432446,36.9607843 C21.5206182,37.1568627 20.4492953,37.254902 19.4266688,37.254902 C17.284023,37.254902 15.1900736,36.8627451 13.1935172,36.0784314 C12.9500347,35.9803922 12.7552488,35.9313725 12.5117663,35.9313725 C12.1708908,35.9313725 11.7813188,36.0294118 11.4891398,36.2254902 C10.0769414,37.1078431 8.17777804,37.6470588 6.47340065,37.8431373 C7.10645511,37.1078431 7.64211658,36.2745098 8.27517104,35.245098 C8.76213601,34.4607843 8.56735002,33.4313725 7.88559906,32.7941176 C4.42814778,29.7058824 2.33419841,25.4411765 2.04201943,20.7843137 C1.45766146,11.9117647 7.83690256,3.7254902 16.5535755,2.25490196 C17.478809,2.05882353 18.5014354,1.96078431 19.4753653,1.96078431 C28.6303068,1.96078431 36.3243533,9.16666667 36.9574077,18.4313725 C37.2495867,22.6960784 35.9347813,26.9607843 33.256474,30.4411765 Z" id="Shape"></path>
                    </g>
                </g>
            </g>
        </g>
    </g>
</svg>