<?xml version="1.0" encoding="UTF-8"?>
<svg width="39px" height="39px" viewBox="0 0 39 39" version="1.1" xmlns="http://www.w3.org/2000/svg" xmlns:xlink="http://www.w3.org/1999/xlink">
    <!-- Generator: sketchtool 61.2 (101010) - https://sketch.com -->
    <title>81E96457-2071-4C23-8FD4-A61973A671A0</title>
    <desc>Created with sketchtool.</desc>
    <g id="Welcome" stroke="none" stroke-width="1" fill="none" fill-rule="evenodd">
        <g id="Accounting-Page" transform="translate(-707.000000, -1051.000000)" fill="#089BD9" fill-rule="nonzero">
            <g id="Services" transform="translate(0.000000, 822.000000)">
                <g id="Second" transform="translate(614.000000, 229.000000)">
                    <g id="Help-Desc-Icon" transform="translate(93.000000, 0.000000)">
                        <path d="M19.2947368,0 C8.67236842,0 0,8.72368421 0,19.2947368 C0,29.8657895 8.67236842,38.4868421 19.2947368,38.4868421 C29.8657895,38.4868421 38.5894737,29.9171053 38.5894737,19.2947368 C38.5894737,8.62105263 29.9684211,0 19.2947368,0 Z M19.2947368,1.89868421 C23.7078947,1.89868421 27.7618421,3.59210526 30.8407895,6.31184211 L24.6828947,12.3671053 C23.1947368,11.1868421 21.3473684,10.5197368 19.2947368,10.5197368 C17.1907895,10.5197368 15.2921053,11.2381579 13.8039474,12.4697368 L7.69736842,6.31184211 C10.8276316,3.54078947 14.8815789,1.89868421 19.2947368,1.89868421 Z M26.1710526,19.1921053 C26.1710526,22.9894737 23.1434211,26.0171053 19.3460526,26.0171053 C15.5486842,26.0171053 12.5210526,22.9894737 12.5210526,19.1921053 C12.5210526,15.3947368 15.4973684,12.3157895 19.2947368,12.3157895 C23.0407895,12.3157895 26.1710526,15.3947368 26.1710526,19.1921053 Z M1.95,19.2947368 C1.95,14.8302632 3.64342105,10.7763158 6.41447368,7.69736842 L12.5210526,13.8552632 C11.2894737,15.2921053 10.5710526,17.1907895 10.5710526,19.2947368 C10.5710526,21.3473684 11.2894737,23.2460526 12.4697368,24.7342105 L6.31184211,30.8407895 C3.59210526,27.7105263 1.95,23.7078947 1.95,19.2947368 Z M19.2947368,36.6394737 C14.7789474,36.6394737 10.725,34.9460526 7.64605263,32.1236842 L13.8039474,26.0171053 C15.2921053,27.3 17.2421053,28.0184211 19.2947368,28.0184211 C21.3473684,28.0184211 23.2460526,27.3 24.7342105,26.0684211 L30.8407895,32.2776316 C27.8131579,34.9973684 23.7592105,36.6394737 19.2947368,36.6394737 Z M32.2263158,30.8921053 L26.1197368,24.6828947 C27.3513158,23.1947368 28.0697368,21.2960526 28.0697368,19.2434211 C28.0697368,17.1394737 27.3513158,15.1894737 26.1197368,13.7013158 L32.2776316,7.64605263 C35.0486842,10.725 36.7421053,14.7789474 36.7421053,19.2434211 C36.6907895,23.7592105 34.9973684,27.8131579 32.2263158,30.8921053 Z" id="Shape"></path>
                    </g>
                </g>
            </g>
        </g>
    </g>
</svg>