<?xml version="1.0" encoding="UTF-8"?>
<svg width="41px" height="41px" viewBox="0 0 41 41" version="1.1" xmlns="http://www.w3.org/2000/svg" xmlns:xlink="http://www.w3.org/1999/xlink">
    <!-- Generator: sketchtool 61.2 (101010) - https://sketch.com -->
    <title>DBBB56BF-DB96-45AD-B5C7-BDF3B3AC8D70</title>
    <desc>Created with sketchtool.</desc>
    <g id="Welcome" stroke="none" stroke-width="1" fill="none" fill-rule="evenodd">
        <g id="Accounting-Page" transform="translate(-425.000000, -1049.000000)" fill="#089BD9" fill-rule="nonzero" stroke="#089BD9" stroke-width="0.6">
            <g id="Services" transform="translate(0.000000, 822.000000)">
                <g id="First" transform="translate(338.000000, 228.000000)">
                    <g id="Phone-Icon" transform="translate(88.000000, 0.000000)">
                        <path d="M38.973371,32.0995604 C38.8493816,31.162396 38.3083599,30.3543592 37.4892045,29.8827447 L27.8677291,24.3430639 C26.6893245,23.6645758 25.1943764,23.8620996 24.2325321,24.8238597 L22.3373981,26.7189937 C21.8331015,27.2233744 21.0352568,27.2680174 20.4819373,26.8226832 C18.9879157,25.6205252 17.5168894,24.2974944 16.1097952,22.890316 C14.702701,21.4832217 13.3796702,20.0122797 12.177428,18.5181739 C11.7320938,17.9647701 11.7766525,17.1670096 12.2811175,16.6626289 L14.1761672,14.7674949 C15.1379273,13.805819 15.3357038,12.3110393 14.6570473,11.1323821 L9.11736649,1.51090664 C8.64566773,0.691666977 7.83771515,0.150729579 6.90055079,0.0267401913 C5.9633022,-0.0975018924 5.04239461,0.215082767 4.37393008,0.883547294 L1.51838372,3.73917789 C-0.474627765,5.73227361 -0.506635896,9.37799962 1.42825557,14.0049433 C3.28877024,18.4539049 6.76081003,23.3514857 11.2046335,27.7954777 C15.6486254,32.2393854 20.5462063,35.7114251 24.9952521,37.5719398 C27.272799,38.5243502 29.3123908,39.0001763 31.0344282,39.0001763 C32.8107109,39.0001763 34.248971,38.4936897 35.2610175,37.4817274 L38.1165639,34.6260968 C38.7849442,33.9576323 39.0972761,33.0367247 38.973371,32.0995604 L38.973371,32.0995604 Z M27.2373374,25.4379946 L36.8588128,30.9776754 C37.3346389,31.2515976 37.648824,31.7209379 37.7207581,32.2652446 C37.7812366,32.7220343 37.6625538,33.1718327 37.393517,33.5342827 L24.6066902,26.2365975 L25.12598,25.7173077 C25.6845219,25.1587658 26.552953,25.0439577 27.2373374,25.4379946 L27.2373374,25.4379946 Z M6.73478237,1.27935309 C7.27917328,1.35137138 7.74842931,1.66555645 8.02235152,2.14138257 L13.5620323,11.762858 C13.9562377,12.4474108 13.8413453,13.3156735 13.2828035,13.8741311 L12.8057981,14.3511365 L5.46801851,1.60659411 C5.76796838,1.38447453 6.12671213,1.26385442 6.50070186,1.26385442 C6.57827946,1.26385442 6.65653091,1.26899257 6.73478237,1.27935309 Z M34.3674853,36.5882794 C32.7840936,38.1716711 29.5457132,38.1052963 25.4827022,36.40617 C21.1818203,34.60765 16.4285288,31.2323085 12.0981657,26.9020297 C7.76780265,22.5716666 4.39246111,17.8182908 2.59394112,13.5174932 C0.894730577,9.45439797 0.828440055,6.21601753 2.41183171,4.63254164 L4.53169647,2.51259265 L11.8805104,15.2764241 L11.3876695,15.7692651 C10.4261621,16.7308567 10.3424356,18.253096 11.1930095,19.3103751 C12.4235536,20.8396898 13.7772448,22.3447458 15.216263,23.7837639 C16.6554496,25.2228663 18.1605056,26.5765575 19.6897361,27.8071017 C20.7468467,28.6576756 22.269086,28.5740333 23.230846,27.6123575 L23.680476,27.1627275 L36.4850758,34.4706047 L34.3674853,36.5882794 Z" id="Shape"></path>
                    </g>
                </g>
            </g>
        </g>
    </g>
</svg>