<?xml version="1.0" encoding="UTF-8"?>
<svg width="49px" height="49px" viewBox="0 0 49 49" version="1.1" xmlns="http://www.w3.org/2000/svg" xmlns:xlink="http://www.w3.org/1999/xlink">
    <!-- Generator: sketchtool 61.2 (101010) - https://sketch.com -->
    <title>7B32EA80-A6C1-472D-AF4F-70D04DA26CC5</title>
    <desc>Created with sketchtool.</desc>
    <g id="Welcome" stroke="none" stroke-width="1" fill="none" fill-rule="evenodd">
        <g id="Accounting-Page" transform="translate(-545.000000, -2500.000000)" fill="#FFFFFF">
            <g id="Social-Networks" transform="translate(0.000000, 2356.000000)">
                <g id="Icons" transform="translate(545.000000, 144.000000)">
                    <g id="facebook">
                        <g id="Layer_1">
                            <path d="M42.3093414,0 L6.58944896,0 C2.95040134,0 0.000239237895,2.92069835 0.000239237895,6.52366672 L0.000239237895,41.8884895 C0.000239237895,45.4914578 2.95028172,48.4121562 6.58944896,48.4121562 L24.2063295,48.4121562 L24.2363538,31.1122708 L19.6966951,31.1122708 C19.1067345,31.1122708 18.6278998,30.6399756 18.6256271,30.0558833 L18.6038564,24.4794124 C18.6015837,23.8921226 19.0818537,23.4148533 19.6750441,23.4148533 L24.2064491,23.4148533 L24.2064491,18.0265663 C24.2064491,11.7735101 28.0638013,8.36867359 33.6979733,8.36867359 L38.3212456,8.36867359 C38.9127613,8.36867359 39.3924333,8.84345584 39.3924333,9.42920614 L39.3924333,14.1313149 C39.3924333,14.7168284 38.9131202,15.1914922 38.3218437,15.1918475 L35.4846019,15.1931502 C32.4205626,15.1931502 31.8272526,16.6346692 31.8272526,18.7501681 L31.8272526,23.4149717 L38.5600051,23.4149717 C39.2015215,23.4149717 39.6992559,23.9695752 39.6236567,24.6003285 L38.9560634,30.1767994 C38.8921869,30.7104409 38.4351229,31.1125076 37.8924117,31.1125076 L31.857277,31.1125076 L31.8272526,48.412393 L42.3095806,48.412393 C45.9486282,48.412393 48.8986707,45.4916947 48.8986707,41.8888447 L48.8986707,6.52366672 C48.8985511,2.92069835 45.9485086,0 42.3093414,0 Z" id="Shape"></path>
                        </g>
                    </g>
                </g>
            </g>
        </g>
    </g>
</svg>