<?xml version="1.0" encoding="UTF-8"?>
<svg width="49px" height="49px" viewBox="0 0 49 49" version="1.1" xmlns="http://www.w3.org/2000/svg" xmlns:xlink="http://www.w3.org/1999/xlink">
    <!-- Generator: sketchtool 61.2 (101010) - https://sketch.com -->
    <title>FD62E91A-6AA5-427E-882B-36FC89424631</title>
    <desc>Created with sketchtool.</desc>
    <g id="Welcome" stroke="none" stroke-width="1" fill="none" fill-rule="evenodd">
        <g id="Accounting-Page" transform="translate(-645.000000, -2500.000000)" fill="#FFFFFF">
            <g id="Social-Networks" transform="translate(0.000000, 2356.000000)">
                <g id="Icons" transform="translate(545.000000, 144.000000)">
                    <g id="instagram" transform="translate(100.000000, 0.000000)">
                        <g id="Layer_1">
                            <g id="Group">
                                <path d="M34.2892702,0 L14.5492621,0 C6.52676517,0 0,6.4618433 0,14.4045403 L0,33.9481941 C0,41.8908911 6.52676517,48.3527344 14.5492621,48.3527344 L34.2892702,48.3527344 C42.3117671,48.3527344 48.8385323,41.8908911 48.8385323,33.9481941 L48.8385323,14.4045403 C48.8384436,6.4618433 42.3116785,0 34.2892702,0 Z M43.9253777,33.9481941 C43.9253777,39.2170884 39.6111009,43.4884511 34.2892702,43.4884511 L14.5492621,43.4884511 C9.2274314,43.4884511 4.91315454,39.2170884 4.91315454,33.9481941 L4.91315454,14.4045403 C4.91315454,9.1355582 9.2274314,4.86428329 14.5492621,4.86428329 L34.2892702,4.86428329 C39.6111009,4.86428329 43.9253777,9.1355582 43.9253777,14.4045403 L43.9253777,33.9481941 L43.9253777,33.9481941 Z" id="Shape"></path>
                                <path d="M24.4192661,11.6706295 C17.4543108,11.6706295 11.7878839,17.2806924 11.7878839,24.1762794 C11.7878839,31.0718665 17.4543108,36.6820171 24.4192661,36.6820171 C31.3842215,36.6820171 37.0506484,31.0719543 37.0506484,24.1762794 C37.0506484,17.2806046 31.3842215,11.6706295 24.4192661,11.6706295 Z M24.4192661,31.8178216 C20.1565723,31.8178216 16.7010384,28.3966599 16.7010384,24.1763672 C16.7010384,19.9560745 20.156661,16.5349128 24.4192661,16.5349128 C28.6819599,16.5349128 32.1374939,19.9560745 32.1374939,24.1763672 C32.1374939,28.3965721 28.6818713,31.8178216 24.4192661,31.8178216 Z" id="Shape"></path>
                                <ellipse id="Oval" cx="37.0751105" cy="11.7645211" rx="3.0267386" ry="2.99663157"></ellipse>
                            </g>
                        </g>
                    </g>
                </g>
            </g>
        </g>
    </g>
</svg>