<?xml version="1.0" encoding="UTF-8"?>
<svg width="50px" height="50px" viewBox="0 0 50 50" version="1.1" xmlns="http://www.w3.org/2000/svg" xmlns:xlink="http://www.w3.org/1999/xlink">
    <!-- Generator: sketchtool 61.2 (101010) - https://sketch.com -->
    <title>78AF01C6-D72E-45EB-8452-1035F7DC7EF7</title>
    <desc>Created with sketchtool.</desc>
    <g id="Welcome" stroke="none" stroke-width="1" fill="none" fill-rule="evenodd">
        <g id="Accounting-Page" transform="translate(-845.000000, -2500.000000)" fill="#FFFFFF" fill-rule="nonzero">
            <g id="Social-Networks" transform="translate(0.000000, 2356.000000)">
                <g id="Icons" transform="translate(545.000000, 144.000000)">
                    <path d="M345.477094,0 L304.522906,0 C302.025,0 300,2.025 300,4.52290576 L300,45.4769634 C300,47.975 302.025,50 304.522906,50 L345.476963,50 C347.975,50 350,47.975 350,45.4769634 L350,4.52290576 C350,2.025 347.975,0 345.477094,0 Z M315.47212,43.1732984 C315.47212,43.9002618 314.882853,44.4895288 314.15589,44.4895288 L308.55301,44.4895288 C307.826047,44.4895288 307.23678,43.9002618 307.23678,43.1732984 L307.23678,19.6862565 C307.23678,18.9592932 307.826047,18.3700262 308.55301,18.3700262 L314.15589,18.3700262 C314.882853,18.3700262 315.47212,18.9592932 315.47212,19.6862565 L315.47212,43.1732984 Z M311.35445,16.1560209 C308.414791,16.1560209 306.031675,13.7729058 306.031675,10.8332461 C306.031675,7.89358639 308.414791,5.5104712 311.35445,5.5104712 C314.29411,5.5104712 316.677225,7.89358639 316.677225,10.8332461 C316.677225,13.7729058 314.294241,16.1560209 311.35445,16.1560209 Z M344.752621,43.2793194 C344.752621,43.947644 344.210733,44.4895288 343.542408,44.4895288 L337.530105,44.4895288 C336.86178,44.4895288 336.319895,43.947644 336.319895,43.2793194 L336.319895,32.2625654 C336.319895,30.6191099 336.801963,25.0608639 332.025,25.0608639 C328.319634,25.0608639 327.568063,28.8653141 327.417147,30.572644 L327.417147,43.2793194 C327.417147,43.947644 326.875393,44.4895288 326.206937,44.4895288 L320.392016,44.4895288 C319.723691,44.4895288 319.181806,43.947644 319.181806,43.2793194 L319.181806,19.5802356 C319.181806,18.911911 319.723691,18.3700262 320.392016,18.3700262 L326.206937,18.3700262 C326.875262,18.3700262 327.417147,18.911911 327.417147,19.5802356 L327.417147,21.6293194 C328.791099,19.5674084 330.832984,17.9759162 335.180497,17.9759162 C344.807723,17.9759162 344.752621,26.9701571 344.752621,31.9120419 L344.752621,43.2793194 L344.752621,43.2793194 Z" id="Shape"></path>
                </g>
            </g>
        </g>
    </g>
</svg>