<?xml version="1.0" encoding="UTF-8"?>
<svg width="50px" height="50px" viewBox="0 0 50 50" version="1.1" xmlns="http://www.w3.org/2000/svg" xmlns:xlink="http://www.w3.org/1999/xlink">
    <!-- Generator: sketchtool 61.2 (101010) - https://sketch.com -->
    <title>FC5A6081-6C8A-43BE-8947-995333F61BE5</title>
    <desc>Created with sketchtool.</desc>
    <g id="Welcome" stroke="none" stroke-width="1" fill="none" fill-rule="evenodd">
        <g id="Accounting-Page" transform="translate(-745.000000, -2500.000000)" fill="#FFFFFF">
            <g id="Social-Networks" transform="translate(0.000000, 2356.000000)">
                <g id="Icons" transform="translate(545.000000, 144.000000)">
                    <g id="twitter-logo" transform="translate(200.000000, 0.000000)">
                        <g id="Capa_1">
                            <path d="M40.6250321,0 L9.37496788,0 C4.1968293,0 0,4.15508335 0,9.28171487 L0,40.2209341 C0,45.3475656 4.1968293,49.502649 9.37496788,49.502649 L40.6250321,49.502649 C45.8031707,49.502649 50,45.3474638 50,40.2209341 L50,9.28171487 C50.0001028,4.15508335 45.8031707,0 40.6250321,0 Z M37.4375759,19.1946409 L37.4562852,19.983604 C37.4562852,28.0401463 31.2656895,37.321963 19.9437284,37.321963 C16.4687463,37.321963 13.2343115,36.3133686 10.5093433,34.583797 C10.9906433,34.6394682 11.4811952,34.6704079 11.9781205,34.6704079 C14.8625283,34.6704079 17.5156407,33.6958065 19.621868,32.0622092 C16.9281504,32.0127464 14.6562128,30.2491819 13.8718644,27.8297765 C14.2499553,27.8978643 14.6312329,27.9350123 15.0312197,27.9350123 C15.5937301,27.9350123 16.1374285,27.8638713 16.6530631,27.7246425 C13.8374271,27.1615191 11.7155745,24.7019125 11.7155745,21.7503235 L11.7155745,21.6729742 C12.5467988,22.1308618 13.4936707,22.4031111 14.5030438,22.4372058 C12.8530339,21.3450538 11.7655343,19.4794085 11.7655343,17.3662455 C11.7655343,16.249362 12.0686855,15.2036195 12.5967586,14.3033142 C15.6311486,17.9912483 20.1686503,20.4168619 25.2842877,20.6705881 C25.1779947,20.2250153 25.1249509,19.7578661 25.1249509,19.2814553 C25.1249509,15.9183883 27.8811697,13.189484 31.281212,13.189484 C33.0499536,13.189484 34.6500038,13.9288824 35.7749218,15.1138536 C37.1749272,14.8384493 38.4937221,14.3310989 39.684328,13.634955 C39.224924,15.0581825 38.2499882,16.2524153 36.9780691,17.0072836 C38.2187376,16.8618465 39.4093435,16.530771 40.5124684,16.048152 C39.6875148,17.2671162 38.6406204,18.3407451 37.4375759,19.1946409 Z" id="Shape"></path>
                        </g>
                    </g>
                </g>
            </g>
        </g>
    </g>
</svg>