<?xml version="1.0" encoding="UTF-8"?>
<svg width="39px" height="55px" viewBox="0 0 39 55" version="1.1" xmlns="http://www.w3.org/2000/svg" xmlns:xlink="http://www.w3.org/1999/xlink">
    <!-- Generator: sketchtool 61.2 (101010) - https://sketch.com -->
    <title>E2F1B61A-A727-4A44-B874-5CBC7007269B</title>
    <desc>Created with sketchtool.</desc>
    <g id="Welcome" stroke="none" stroke-width="1" fill="none" fill-rule="evenodd">
        <g id="Accounting-Page" transform="translate(-608.000000, -728.000000)" fill="#FFFFFF" fill-rule="nonzero">
            <g id="Contact-Section" transform="translate(0.000000, 686.000000)">
                <g id="Location" transform="translate(608.000000, 41.000000)">
                    <g id="Location-Icon" transform="translate(0.000000, 1.000000)">
                        <path d="M19.557,12 C15.698,12 12.557,15.141 12.557,19 C12.557,22.859 15.698,26 19.557,26 C23.416,26 26.557,22.859 26.557,19 C26.557,15.141 23.416,12 19.557,12 Z M19.557,24 C16.8,24 14.557,21.757 14.557,19 C14.557,16.243 16.8,14 19.557,14 C22.314,14 24.557,16.243 24.557,19 C24.557,21.757 22.314,24 19.557,24 Z" id="Shape"></path>
                        <path d="M32.94,5.617 C29.318,1.995 24.502,0 19.38,0 C14.257,0 9.442,1.995 5.82,5.617 C-0.883,12.319 -1.716,24.929 4.016,32.569 L19.38,54.757 L34.721,32.6 C40.476,24.929 39.643,12.319 32.94,5.617 Z M33.099,31.431 L19.38,51.243 L5.639,31.4 C0.44,24.468 1.185,13.08 7.235,7.031 C10.479,3.787 14.792,2 19.38,2 C23.968,2 28.281,3.787 31.526,7.031 C37.576,13.08 38.321,24.468 33.099,31.431 Z" id="Shape"></path>
                    </g>
                </g>
            </g>
        </g>
    </g>
</svg>