<?xml version="1.0" encoding="UTF-8"?>
<svg width="48px" height="48px" viewBox="0 0 48 48" version="1.1" xmlns="http://www.w3.org/2000/svg" xmlns:xlink="http://www.w3.org/1999/xlink">
    <!-- Generator: sketchtool 61.2 (101010) - https://sketch.com -->
    <title>85EFC2CB-2BB2-421E-9F8C-CDEE5B4A818C</title>
    <desc>Created with sketchtool.</desc>
    <g id="Welcome" stroke="none" stroke-width="1" fill="none" fill-rule="evenodd">
        <g id="Accounting-Page" transform="translate(-291.000000, -731.000000)" fill="#FFFFFF" fill-rule="nonzero">
            <g id="Contact-Section" transform="translate(0.000000, 686.000000)">
                <g id="Phone" transform="translate(291.000000, 41.000000)">
                    <g id="Phone-Icon" transform="translate(0.000000, 4.000000)">
                        <path d="M47.8646897,39.4225862 C47.7124138,38.2716207 47.0479655,37.2792414 46.041931,36.7000345 L34.2254483,29.8965517 C32.7782069,29.0632759 30.9422069,29.3058621 29.760931,30.4870345 L27.4334483,32.8145172 C26.8141034,33.4339655 25.8342414,33.4887931 25.1546897,32.9418621 C23.3198276,31.4654483 21.5132069,29.8405862 19.7851034,28.1123793 C18.057,26.3842759 16.4321379,24.5777586 14.9556207,22.7427931 C14.4086897,22.0631379 14.4634138,21.0833793 15.0829655,20.463931 L17.4103448,18.1364483 C18.5915172,16.9553793 18.8344138,15.1195862 18.000931,13.6720345 L11.1974483,1.85555172 C10.6181379,0.849413793 9.62586207,0.185068966 8.47489655,0.0327931034 C7.32382759,-0.119793103 6.19282759,0.264103448 5.37186207,1.08506897 L1.86486207,4.59217241 C-0.582827586,7.03996552 -0.622137931,11.5174138 1.75417241,17.199931 C4.03913793,22.6638621 8.30327586,28.6787586 13.7608966,34.1365862 C19.2187241,39.5943103 25.2336207,43.8584483 30.6976552,46.1434138 C33.4947931,47.3131034 35.9996897,47.8974828 38.1145862,47.8974828 C40.2961034,47.8974828 42.0624828,47.2754483 43.3054138,46.0326207 L46.8124138,42.5255172 C47.6332759,41.7045517 48.0168621,40.5735517 47.8646897,39.4225862 L47.8646897,39.4225862 Z M33.4512414,31.2412759 L45.2677241,38.0447586 C45.8521034,38.3811724 46.2379655,38.9575862 46.3263103,39.626069 C46.4005862,40.187069 46.2548276,40.7394828 45.9244138,41.1846207 L30.2204483,32.222069 L30.8582069,31.5843103 C31.5441724,30.8983448 32.6107241,30.7573448 33.4512414,31.2412759 L33.4512414,31.2412759 Z M8.27131034,1.57117241 C8.93989655,1.65962069 9.5162069,2.04548276 9.85262069,2.62986207 L16.6561034,14.4463448 C17.1402414,15.287069 16.9991379,16.3534138 16.3131724,17.0392759 L15.7273448,17.6251034 L6.71555172,1.97306897 C7.08393103,1.70027586 7.52451724,1.55213793 7.98382759,1.55213793 C8.07910345,1.55213793 8.1752069,1.55844828 8.27131034,1.57117241 Z M42.2080345,44.9353448 C40.2634138,46.8799655 36.2862414,46.7984483 31.2963103,44.7116897 C26.0142414,42.5028621 20.1765517,38.3574828 14.8582759,33.0393103 C9.54,27.7210345 5.39462069,21.8832414 3.1857931,16.6012759 C1.09893103,11.6112414 1.01751724,7.63406897 2.96213793,5.68934483 L5.56562069,3.08575862 L14.5909655,18.7614828 L13.9856897,19.3667586 C12.8048276,20.5477241 12.702,22.4172414 13.7466207,23.7157241 C15.2578966,25.593931 16.9204138,27.4423448 18.6877241,29.2096552 C20.4552414,30.977069 22.3036552,32.6395862 24.1817586,34.1508621 C25.4800345,35.1954828 27.3495517,35.0927586 28.5307241,33.9116897 L29.082931,33.3594828 L44.8087241,42.3345517 L42.2080345,44.9353448 Z" id="Shape"></path>
                    </g>
                </g>
            </g>
        </g>
    </g>
</svg>