<?xml version="1.0" encoding="UTF-8"?>
<svg width="98px" height="56px" viewBox="0 0 98 56" version="1.1" xmlns="http://www.w3.org/2000/svg" xmlns:xlink="http://www.w3.org/1999/xlink">
    <!-- Generator: sketchtool 61.2 (101010) - https://sketch.com -->
    <title>D52D7581-F01E-436E-813E-38F0001BFD18</title>
    <desc>Created with sketchtool.</desc>
    <g id="Welcome" stroke="none" stroke-width="1" fill="none" fill-rule="evenodd">
        <g id="Accounting-Page" transform="translate(-511.000000, -6148.000000)" fill="#089BD9" fill-rule="nonzero">
            <g id="Social-Networks" transform="translate(0.000000, 5832.000000)">
                <g id="Icons" transform="translate(80.000000, 60.000000)">
                    <g id="Group-2" transform="translate(330.000000, 219.000000)">
                        <g id="check" transform="translate(101.000000, 37.000000)">
                            <path d="M93.1920664,0 L4.80793359,0 C2.15676563,0 0,2.17836849 0,4.85609141 L0,51.1439086 C0,53.8216315 2.15676563,56 4.80793359,56 L93.1920664,56 C95.8432344,56 98,53.8216315 98,51.1439086 L98,4.85609141 C98,2.17836849 95.8432344,0 93.1920664,0 Z M94.9311836,51.1439086 C94.9311836,52.112459 94.1510117,52.9004453 93.1920664,52.9004453 L4.80793359,52.9004453 C3.84898828,52.9004453 3.06881641,52.112459 3.06881641,51.1439086 L3.06881641,4.85609141 C3.06881641,3.88754099 3.84898828,3.09955467 4.80793359,3.09955467 L93.1920664,3.09955467 C94.1510117,3.09955467 94.9311836,3.88754099 94.9311836,4.85609141 L94.9311836,51.1439086 Z" id="Shape"></path>
                            <path d="M20.1139572,22.850366 L20.1139572,15.6456007 C22.331261,16.0487331 23.7720856,17.2430178 23.7720856,18.3356362 C23.7720856,19.2045102 24.4946118,19.9091088 25.3860428,19.9091088 C26.2774738,19.9091088 27,19.2047065 27,18.3356362 C27,15.372397 24.0825162,12.9779396 20.1139572,12.4613648 L20.1139572,10.5734726 C20.1139572,9.70459854 19.391431,9 18.5,9 C17.608569,9 16.8860428,9.70440227 16.8860428,10.5734726 L16.8860428,12.4613648 C12.9174838,12.9779396 10,15.3722007 10,18.3356362 C10,22.5267218 13.7988489,24.1557379 16.8860428,25.149634 L16.8860428,32.3543993 C14.668739,31.9512669 13.2279144,30.7569822 13.2279144,29.6643638 C13.2279144,28.7954898 12.5053882,28.0908912 11.6139572,28.0908912 C10.7225262,28.0908912 10,28.7952935 10,29.6643638 C10,32.627603 12.9174838,35.0222567 16.8860428,35.5386352 L16.8860428,37.4265274 C16.8860428,38.2954015 17.608569,39 18.5,39 C19.391431,39 20.1139572,38.2955977 20.1139572,37.4265274 L20.1139572,35.5386352 C24.0825162,35.0220604 27,32.627603 27,29.6643638 C26.9997987,25.473082 23.2009497,23.8440659 20.1139572,22.850366 Z M16.8860428,21.8001413 C14.132431,20.7758238 13.2279144,19.8492473 13.2279144,18.3356362 C13.2279144,17.2430178 14.668739,16.0487331 16.8860428,15.6456007 L16.8860428,21.8001413 Z M20.1139572,32.3543993 L20.1139572,26.1998587 C22.867569,27.2241762 23.7720856,28.1507527 23.7720856,29.6643638 C23.7720856,30.7567859 22.331261,31.9512669 20.1139572,32.3543993 Z" id="Shape"></path>
                            <path d="M58.4789666,10 L32.5210334,10 C31.6811164,10 31,10.6715105 31,11.5 C31,12.3284895 31.6809266,13 32.5210334,13 L58.4789666,13 C59.3188836,13 60,12.3284895 60,11.5 C60,10.6715105 59.3188836,10 58.4789666,10 Z" id="Shape"></path>
                            <path d="M88.5483462,10 L85.4516538,10 C84.6500483,10 84,10.6715105 84,11.5 C84,12.3284895 84.6498672,13 85.4516538,13 L88.5483462,13 C89.3499517,13 90,12.3284895 90,11.5 C90,10.6715105 89.3499517,10 88.5483462,10 Z" id="Shape"></path>
                            <path d="M77.5483462,10 L74.4516538,10 C73.6500483,10 73,10.6715105 73,11.5 C73,12.3284895 73.6498672,13 74.4516538,13 L77.5483462,13 C78.3499517,13 79,12.3284895 79,11.5 C79,10.6715105 78.3499517,10 77.5483462,10 Z" id="Shape"></path>
                            <path d="M49.4209956,23 L32.5790044,23 C31.7070757,23 31,23.6715105 31,24.5 C31,25.3284895 31.7068787,26 32.5790044,26 L49.4209956,26 C50.2929243,26 51,25.3284895 51,24.5 C51,23.6715105 50.2929243,23 49.4209956,23 Z" id="Shape"></path>
                            <path d="M62.4431526,17 L32.5566532,17 C31.6970669,17 31,17.6715105 31,18.5 C31,19.3284895 31.6968727,20 32.5566532,20 L62.4433468,20 C63.3029331,20 64,19.3284895 64,18.5 C64,17.6715105 63.3029331,17 62.4431526,17 Z" id="Shape"></path>
                            <path d="M88.4209956,23 L71.5790044,23 C70.7070757,23 70,23.6715105 70,24.5 C70,25.3284895 70.7068787,26 71.5790044,26 L88.4209956,26 C89.2929243,26 90,25.3284895 90,24.5 C90,23.6715105 89.2929243,23 88.4209956,23 Z" id="Shape"></path>
                            <path d="M88.4042278,17 L81.5957722,17 C80.7145843,17 80,17.6715105 80,18.5 C80,19.3284895 80.7143852,20 81.5957722,20 L88.4042278,20 C89.2854157,20 90,19.3284895 90,18.5 C90,17.6715105 89.2854157,17 88.4042278,17 Z" id="Shape"></path>
                            <path d="M18.4040287,45 L11.5957722,45 C10.7145843,45 10,45.6715105 10,46.5 C10,47.3284895 10.7143852,48 11.5957722,48 L18.4042278,48 C19.2854157,48 20,47.3284895 20,46.5 C20,45.6715105 19.2854157,45 18.4040287,45 Z" id="Shape"></path>
                            <path d="M57.3860237,45 L43.6139763,45 C42.722736,45 42,45.6715105 42,46.5 C42,47.3284895 42.7225347,48 43.6139763,48 L57.3860237,48 C58.277264,48 59,47.3284895 59,46.5 C59,45.6715105 58.277264,45 57.3860237,45 Z" id="Shape"></path>
                            <path d="M27.5483462,45 L24.4516538,45 C23.6500483,45 23,45.6715105 23,46.5 C23,47.3284895 23.6498672,48 24.4516538,48 L27.5483462,48 C28.3499517,48 29,47.3284895 29,46.5 C29,45.6715105 28.3499517,45 27.5483462,45 Z" id="Shape"></path>
                            <path d="M37.5483462,45 L34.4516538,45 C33.6500483,45 33,45.6715105 33,46.5 C33,47.3284895 33.6498672,48 34.4516538,48 L37.5483462,48 C38.3499517,48 39,47.3284895 39,46.5 C39,45.6715105 38.3499517,45 37.5483462,45 Z" id="Shape"></path>
                            <path d="M89.6346765,34.5568718 C89.0774865,33.9003142 88.0837818,33.8115119 87.4155469,34.3588042 L78.4372213,41.707964 L74.4126783,37.7549118 C73.7973126,37.1504772 72.7996772,37.1504772 72.184508,37.7549118 L68.1513172,41.7164581 L68.1513172,35.5477893 C68.1513172,34.693164 67.4459363,34 66.5756586,34 C65.7053809,34 65,34.692971 65,35.5477893 L65,45.452524 C65,46.07858 65.383842,46.6426674 65.9726749,46.8822405 C66.1676422,46.9613903 66.37224,47 66.5754621,47 C66.9854438,47 67.3885467,46.8426655 67.689842,46.5467223 L73.2982983,41.037893 L77.2261438,44.8959654 C77.8023982,45.4619833 78.72299,45.5029096 79.3487724,44.9905591 L89.4326337,36.7365814 C90.1016547,36.1892892 90.1918664,35.2134295 89.6346765,34.5568718 Z" id="Shape"></path>
                        </g>
                    </g>
                </g>
            </g>
        </g>
    </g>
</svg>