<?xml version="1.0" encoding="UTF-8"?>
<svg width="57px" height="95px" viewBox="0 0 57 95" version="1.1" xmlns="http://www.w3.org/2000/svg" xmlns:xlink="http://www.w3.org/1999/xlink">
    <!-- Generator: sketchtool 61.2 (101010) - https://sketch.com -->
    <title>B4779756-F41E-412D-94F4-5051FE323FCB</title>
    <desc>Created with sketchtool.</desc>
    <g id="Welcome" stroke="none" stroke-width="1" fill="none" fill-rule="evenodd">
        <g id="Accounting-Page" transform="translate(-532.000000, -5906.000000)" fill="#FFFFFF" fill-rule="nonzero">
            <g id="Social-Networks" transform="translate(0.000000, 5832.000000)">
                <g id="Icons" transform="translate(80.000000, 60.000000)">
                    <g id="Group-2" transform="translate(330.000000, 0.000000)">
                        <g id="Group-3" transform="translate(64.000000, 14.000000)">
                            <g id="profits" transform="translate(58.000000, 0.000000)">
                                <path d="M52.3332572,6.34644531 L29.9898979,6.34644531 L29.9898979,1.4875293 C29.9898979,0.665927734 29.3228487,0 28.5002787,0 C27.6777086,0 27.0106594,0.665927734 27.0106594,1.4875293 L27.0106594,6.34663086 L4.66730014,6.34663086 C2.0936796,6.34663086 0,8.43737305 0,11.0073828 L0,68.1261328 C0,70.6961426 2.0936796,72.7868848 4.66730014,72.7868848 L11.9414804,72.7868848 L3.29808422,92.9261426 C2.97403583,93.6813184 3.32428309,94.5556152 4.08033405,94.879209 C4.27153004,94.9610352 4.47052993,95 4.6663711,95 C5.24423262,95 5.7940372,94.6619336 6.03614445,94.0980566 L11.0967992,82.3065527 L45.9032007,82.3065527 L50.9636696,94.0982422 C51.2057769,94.6623047 51.7555815,95 52.333443,95 C52.5292841,95 52.728284,94.9614063 52.91948,94.8793945 C53.675531,94.5558008 54.0259641,93.6813184 53.7017299,92.9263281 L45.0585195,72.7868848 L52.3326997,72.7868848 C54.9063203,72.7868848 57,70.6961426 57,68.1261328 L57,11.0071973 C57,8.43737305 54.9066919,6.34644531 52.3332572,6.34644531 Z M12.3738546,79.3316797 L15.1827075,72.7868848 L41.8178498,72.7868848 L44.6265169,79.3316797 L12.3738546,79.3316797 Z M54.0213189,68.1259473 C54.0213189,69.0555371 53.2639672,69.8118262 52.3330714,69.8118262 L4.66730014,69.8118262 C3.73640426,69.8118262 2.97905264,69.0555371 2.97905264,68.1259473 L2.97905264,11.0071973 C2.97905264,10.0776074 3.73640426,9.32131836 4.66730014,9.32131836 L52.3330714,9.32131836 C53.2639672,9.32131836 54.0213189,10.0776074 54.0213189,11.0071973 L54.0213189,68.1259473 L54.0213189,68.1259473 Z" id="Shape"></path>
                                <path d="M49.9926162,23.3180545 C49.9905857,23.2974428 49.9865247,23.2771959 49.9837557,23.2565842 C49.9798793,23.2299532 49.9765566,23.2029573 49.971388,23.1765087 C49.9665885,23.1527961 49.9599432,23.1296307 49.9540362,23.106283 C49.9483137,23.0834824 49.9431451,23.0604994 49.9363152,23.0378813 C49.9293006,23.0148983 49.9206247,22.9928274 49.9125026,22.9702092 C49.9043804,22.9475911 49.8969967,22.9249729 49.8873978,22.9027196 C49.8785373,22.8817431 49.8680155,22.8613138 49.8584166,22.8408845 C49.8475256,22.8182663 49.8375575,22.7954658 49.8253743,22.7732124 C49.8144833,22.7531479 49.8021155,22.7341779 49.7904861,22.7146606 C49.7773799,22.6931369 49.7651967,22.6714308 49.750983,22.6504542 C49.7362155,22.6285657 49.7197867,22.6081364 49.7039116,22.5873423 C49.6908054,22.5701963 49.6788069,22.5525031 49.6647777,22.5359043 C49.6027542,22.4613008 49.5335316,22.3927168 49.4582173,22.3317937 C49.4417885,22.3182958 49.4242521,22.3068043 49.407454,22.2944008 C49.385672,22.2781668 49.3644437,22.261568 49.3419232,22.2467932 C49.3214333,22.2332953 49.300205,22.2216214 49.2791614,22.2092179 C49.2586714,22.1971792 49.2387353,22.1844109 49.2173224,22.1731018 C49.1960942,22.1617927 49.1741275,22.1523077 49.1523454,22.1420931 C49.1301942,22.131696 49.1087813,22.1211166 49.0860763,22.1116315 C49.0650326,22.1030585 49.0434351,22.0959447 49.0222068,22.0884662 C48.9982097,22.0798931 48.9742125,22.0707729 48.9494769,22.0632943 C48.9284332,22.0570926 48.9068357,22.0523501 48.8854229,22.0470603 C48.8599489,22.0406762 48.8348442,22.0335624 48.809001,22.0284551 C48.7850039,22.0237126 48.7606375,22.0209765 48.7366403,22.0175108 C48.7130123,22.0140451 48.6899381,22.0096674 48.6657563,22.0072962 C48.6231151,22.0032833 48.580474,22.0014592 48.5378328,22.000912 C48.5319258,22.000912 48.5262034,22 48.5202964,22 L40.6278055,22 C39.8106089,22 39.1479173,22.6546495 39.1479173,23.4623364 C39.1479173,24.2700233 39.8104243,24.9246728 40.6278055,24.9246728 L44.9476687,24.9246728 L28.6279188,41.0508673 C28.5895233,41.0891722 28.526946,41.088625 28.4881813,41.0508673 L24.4066286,37.0177227 C23.8288501,36.4467967 23.0609401,36.1323315 22.2441127,36.1323315 C21.4272853,36.1323315 20.6591906,36.4466143 20.0815967,37.0175402 L6.4334723,50.5037952 C5.85550923,51.0749035 5.85550923,52.0007885 6.4334723,52.5717144 C6.72236154,52.8571773 7.10114794,53 7.47974975,53 C7.85835156,53 8.23732255,52.8573597 8.5260272,52.5717144 L22.1741516,39.0854594 C22.1813508,39.0785281 22.2031328,39.0570043 22.2439281,39.0570043 C22.2847233,39.0570043 22.3065054,39.0785281 22.3137045,39.0854594 L26.3954418,43.1187865 C27.5879175,44.2969368 29.5281825,44.2967544 30.7204737,43.1187865 L47.0402236,26.992592 L47.0402236,31.2612208 C47.0402236,32.0687253 47.7027306,32.7235572 48.5201118,32.7235572 C49.3373084,32.7235572 50,32.0689077 50,31.2612208 L50,23.463066 C50,23.4145465 49.9972311,23.3662093 49.9926162,23.3180545 Z" id="Shape"></path>
                                <path d="M29.5,50 C28.6716976,50 28,50.6620724 28,51.4789174 L28,62.5210826 C28,63.3377431 28.6715105,64 29.5,64 C30.3283024,64 31,63.3379276 31,62.5210826 L31,51.4789174 C31,50.6622569 30.3283024,50 29.5,50 Z" id="Shape"></path>
                                <path d="M21.5,46 C20.6716976,46 20,46.69469 20,47.5517775 L20,62.4482225 C20,63.3051165 20.6715105,64 21.5,64 C22.3283024,64 23,63.30531 23,62.4482225 L23,47.5517775 C22.9998129,46.6948835 22.3283024,46 21.5,46 Z" id="Shape"></path>
                                <path d="M35.5,46 C34.6716976,46 34,46.69469 34,47.5517775 L34,62.4482225 C34,63.3051165 34.6715105,64 35.5,64 C36.3283024,64 37,63.30531 37,62.4482225 L37,47.5517775 C37,46.6948835 36.3284895,46 35.5,46 Z" id="Shape"></path>
                                <path d="M41.5,40 C40.6716976,40 40,40.6771805 40,41.5126653 L40,62.4873347 C40,63.3226309 40.6715105,64 41.5,64 C42.3283024,64 43,63.3228195 43,62.4873347 L43,41.5124766 C43,40.6771805 42.3283024,40 41.5,40 Z" id="Shape"></path>
                                <path d="M47.5,36 C46.6716976,36 46,36.6715338 46,37.500052 L46,61.499948 C46,62.3282791 46.6715105,63 47.5,63 C48.3284895,63 49,62.3284662 49,61.499948 L49,37.4998649 C49,36.6715338 48.3284895,36 47.5,36 Z" id="Shape"></path>
                                <path d="M15.5,53 C14.6716976,53 14,53.6715258 14,54.500034 L14,62.499966 C14,63.3282871 14.6715105,64 15.5,64 C16.3283024,64 17,63.3284742 17,62.499966 L17,54.500034 C17,53.6715258 16.3283024,53 15.5,53 Z" id="Shape"></path>
                                <path d="M8.5,57 C7.67169764,57 7,57.6498672 7,58.4516538 L7,61.5483462 C7,62.3499517 7.67151054,63 8.5,63 C9.32830236,63 10,62.3501328 10,61.5483462 L10,58.4516538 C9.9998129,57.6498672 9.32830236,57 8.5,57 Z" id="Shape"></path>
                                <path d="M42.5376808,16 L14.4623192,16 C13.6548242,16 13,16.6715105 13,17.5 C13,18.3283024 13.6546418,19 14.4623192,19 L42.5376808,19 C43.3451758,19 44,18.3284895 44,17.5 C44,16.6715105 43.3451758,16 42.5376808,16 Z" id="Shape"></path>
                                <path d="M34.4809635,22 L21.5190365,22 C20.6802222,22 20,22.6715105 20,23.5 C20,24.3284895 20.6800327,25 21.5190365,25 L34.4809635,25 C35.3197778,25 36,24.3284895 36,23.5 C36,22.6715105 35.3199673,22 34.4809635,22 Z" id="Shape"></path>
                            </g>
                        </g>
                    </g>
                </g>
            </g>
        </g>
    </g>
</svg>