<?xml version="1.0" encoding="UTF-8"?>
<svg width="66px" height="83px" viewBox="0 0 66 83" version="1.1" xmlns="http://www.w3.org/2000/svg" xmlns:xlink="http://www.w3.org/1999/xlink">
    <!-- Generator: sketchtool 61.2 (101010) - https://sketch.com -->
    <title>6899BB0A-E3D8-41D2-9F5F-A292F844DFBE</title>
    <desc>Created with sketchtool.</desc>
    <g id="Welcome" stroke="none" stroke-width="1" fill="none" fill-rule="evenodd">
        <g id="Accounting-Page" transform="translate(-197.000000, -5912.000000)" fill="#20A5DC" fill-rule="nonzero">
            <g id="Social-Networks" transform="translate(0.000000, 5832.000000)">
                <g id="Icons" transform="translate(80.000000, 60.000000)">
                    <g id="Group-2">
                        <g id="tax" transform="translate(117.000000, 20.000000)">
                            <path d="M64.625,0 L9.625,0 C8.864625,0 8.25,0.619733333 8.25,1.38333333 L8.25,8.3 L1.375,8.3 C0.614625,8.3 0,8.91973333 0,9.68333333 L0,81.6166667 C0,82.3802667 0.614625,83 1.375,83 L56.375,83 C57.135375,83 57.75,82.3802667 57.75,81.6166667 L57.75,74.7 L64.625,74.7 C65.385375,74.7 66,74.0802667 66,73.3166667 L66,1.38333333 C66,0.619733333 65.385375,0 64.625,0 Z M55,80.2333333 L2.75,80.2333333 L2.75,11.0666667 L44,11.0666667 L44,20.75 C44,21.5136 44.614625,22.1333333 45.375,22.1333333 L55,22.1333333 L55,80.2333333 Z M46.75,19.3666667 L46.75,13.0227 L53.05575,19.3666667 L46.75,19.3666667 Z M63.25,71.9333333 L57.75,71.9333333 L57.75,20.75 C57.75,20.3668167 57.596,20.0209833 57.34575,19.7706 L46.3485,8.7067 C46.099625,8.45493333 45.755875,8.3 45.375,8.3 L11,8.3 L11,2.76666667 L63.25,2.76666667 L63.25,71.9333333 Z" id="Shape"></path>
                            <path d="M49.8777202,32.1183542 C47.0535406,29.2938819 42.4607945,29.2938819 39.6352332,32.1183542 L16.1464594,55.6095623 C15.9696028,55.7864373 15.8438687,56.0089128 15.7830743,56.2507341 L13.1122625,66.9337064 L12,68.0460842 L13.9537133,70 L15.0645941,68.889004 L25.7464594,66.2179155 C25.9896373,66.1571147 26.2120898,66.0313677 26.3889465,65.8544927 L49.8777202,42.3632846 C51.2455959,40.9952672 52,39.1753895 52,37.2408194 C52,35.3062494 51.2455959,33.4863716 49.8777202,32.1183542 Z M34.3944732,41.2674889 L36.5858377,43.4590804 L21.2683938,58.7781117 L19.0770294,56.5865202 L34.3944732,41.2674889 Z M16.2583765,65.7411822 L17.8721934,59.289391 L22.7108808,64.1285798 L16.2583765,65.7411822 Z M25.4134715,62.923619 L23.2221071,60.7320275 L38.5395509,45.4129962 L40.7309154,47.6045877 L25.4134715,62.923619 Z M42.6846287,45.6506719 L36.3481865,39.3135731 L37.8487047,37.8128994 L44.1851468,44.1499983 L42.6846287,45.6506719 Z M47.9253886,40.4093688 L46.1388601,42.1960825 L39.802418,35.8589837 L41.5889465,34.07227 C43.3354059,32.3256296 46.1789292,32.3256296 47.9253886,34.07227 C48.7709845,34.9193353 49.2379965,36.0441497 49.2379965,37.2408194 C49.2379965,38.4374892 48.7709845,39.5623035 47.9253886,40.4093688 Z" id="Shape"></path>
                            <polygon id="Rectangle-path" points="12 72 45 72 45 75 12 75"></polygon>
                            <polygon id="Rectangle-path" transform="translate(18.000000, 29.500000) rotate(-56.311522) translate(-18.000000, -29.500000) " points="8 28 28 28 28 31 8 31"></polygon>
                            <path d="M24,29 C21.7946667,29 20,30.7946667 20,33 C20,35.2053333 21.7946667,37 24,37 C26.2053333,37 28,35.2053333 28,33 C28,30.7946667 26.2053333,29 24,29 Z M24,34.3333333 C23.264,34.3333333 22.6666667,33.7346667 22.6666667,33 C22.6666667,32.2653333 23.264,31.6666667 24,31.6666667 C24.736,31.6666667 25.3333333,32.2653333 25.3333333,33 C25.3333333,33.7346667 24.736,34.3333333 24,34.3333333 Z" id="Shape"></path>
                            <path d="M11,21 C8.79466667,21 7,22.7946667 7,25 C7,27.2053333 8.79466667,29 11,29 C13.2053333,29 15,27.2053333 15,25 C15,22.7946667 13.2053333,21 11,21 Z M11,26.3333333 C10.264,26.3333333 9.66666667,25.7346667 9.66666667,25 C9.66666667,24.2653333 10.264,23.6666667 11,23.6666667 C11.736,23.6666667 12.3333333,24.2653333 12.3333333,25 C12.3333333,25.7346667 11.736,26.3333333 11,26.3333333 Z" id="Shape"></path>
                        </g>
                    </g>
                </g>
            </g>
        </g>
    </g>
</svg>