<?xml version="1.0" encoding="UTF-8"?>
<svg width="81px" height="83px" viewBox="0 0 81 83" version="1.1" xmlns="http://www.w3.org/2000/svg" xmlns:xlink="http://www.w3.org/1999/xlink">
    <!-- Generator: sketchtool 61.2 (101010) - https://sketch.com -->
    <title>3E5214DA-CDE1-44C5-BF73-B415D45C05FE</title>
    <desc>Created with sketchtool.</desc>
    <g id="Welcome" stroke="none" stroke-width="1" fill="none" fill-rule="evenodd">
        <g id="Accounting-Page" transform="translate(-190.000000, -6131.000000)" fill="#089BD9" fill-rule="nonzero">
            <g id="Social-Networks" transform="translate(0.000000, 5832.000000)">
                <g id="Icons" transform="translate(80.000000, 60.000000)">
                    <g id="Group-2" transform="translate(0.000000, 219.000000)">
                        <g id="woman" transform="translate(110.000000, 20.000000)">
                            <path d="M45.6905706,63.0553328 L38.0692996,59.8731873 C38.0807995,59.6068615 38.012279,59.3376547 37.8583075,59.1060601 L35.9090663,56.176316 C35.5080056,55.5734017 34.8954737,55.1694315 34.1842339,55.0389895 C33.6422988,54.9395974 33.0986068,55.0097 32.6100188,55.2344124 L32.6100188,52.6652645 L34.8887654,51.3966957 C36.841201,50.3096254 38.1275979,48.3299475 38.3296456,46.1010692 L38.334597,46.0458514 L39.5245221,46.0458514 C41.7368246,46.0458514 43.5367262,44.2422302 43.5367262,42.0253558 L43.5367262,39.2879937 C43.5367262,38.2007633 43.103242,37.2137252 42.4009466,36.4891717 C43.1543529,34.8062294 43.5367262,32.9894839 43.5367262,31.0759073 C43.5367262,22.2545046 35.2211458,12 24.5001597,12 C13.7791736,12 5.46359328,22.2543445 5.46359328,31.0757472 C5.46359328,32.9893239 5.8456471,34.8062294 6.59905341,36.4891717 C5.89707742,37.2135652 5.46359328,38.2007633 5.46359328,39.2878336 L5.46359328,42.0251957 C5.46359328,44.2420701 7.26349484,46.0456913 9.4757973,46.0456913 L10.6655627,46.0456913 L10.6705141,46.1009091 C10.7995691,47.5245679 11.3726498,48.8451535 12.2774721,49.8976527 C11.5794892,51.0789933 9.56092886,54.9191108 9.56092886,59.8179695 C9.56092886,60.0277971 9.56508162,60.2350639 9.57099132,60.4410503 L3.30942944,63.0554928 C1.29901494,63.8948033 0,65.8475926 0,68.0300559 L0,78.9795044 C0,81.1963788 1.79990156,83 4.01220403,83 L44.987796,83 C47.2000984,83 49,81.1963788 49,78.9795044 L49,68.0302159 C49,65.8474325 47.7009851,63.8946432 45.6905706,63.0553328 Z M33.6576321,57.5775675 C33.6648195,57.5724459 33.6867014,57.5566008 33.722479,57.5631629 C33.7579372,57.569725 33.7732704,57.5924523 33.7782218,57.5998147 L35.2540485,59.8179695 L31.0905882,66.0763063 C31.0848382,66.084789 31.0698244,66.1076764 31.032769,66.1134382 C30.9953942,66.1187199 30.9743109,66.1020746 30.9661651,66.0956725 L26.6223793,62.6134304 L33.6576321,57.5775675 Z M40.9757517,42.0251957 C40.9757517,42.8270541 40.3247268,43.4794244 39.5245221,43.4794244 L38.5676306,43.4794244 L39.0798575,37.833605 L39.5245221,37.833605 C40.3247268,37.833605 40.9757517,38.4859752 40.9757517,39.2878336 L40.9757517,42.0251957 Z M9.4757973,43.4794244 C8.6755926,43.4794244 8.02456777,42.8270541 8.02456777,42.0251957 L8.02456777,39.2878336 C8.02456777,38.4859752 8.6755926,37.833605 9.4757973,37.833605 L9.92062168,37.833605 L10.4328485,43.4794244 L9.4757973,43.4794244 L9.4757973,43.4794244 Z M9.56635939,33.9293068 L9.68774773,35.267338 L9.47563758,35.267338 C9.27454822,35.267338 9.076813,35.2827029 8.88354999,35.3115122 C8.31558034,33.9946078 8.02440805,32.5746302 8.02440805,31.0757472 C8.02440805,27.3268591 9.83804566,23.1648779 12.8756291,19.9423995 C16.143531,16.4753622 20.2720122,14.5661069 24.5001597,14.5661069 C28.7283072,14.5661069 32.8567885,16.4753622 36.1246903,19.9423995 C39.1622738,23.1647179 40.9757517,27.3268591 40.9757517,31.0757472 C40.9757517,32.5746302 40.6844197,33.9946078 40.1166097,35.3115122 C39.9233467,35.2827029 39.7256115,35.267338 39.5245221,35.267338 L39.312412,35.267338 L39.4338003,33.9293068 C39.4876265,33.3363157 39.1271351,32.7841378 38.5634779,32.5959171 C35.1497503,31.4557097 33.9202142,27.9629041 33.909992,27.9328144 C33.7870065,27.5635754 33.5038203,27.2702009 33.1394955,27.1351173 C32.7751708,27.0000338 32.3694782,27.037966 32.0364589,27.2383506 C25.5389883,31.1448895 10.8728812,32.5219733 10.725618,32.5354176 C10.0212462,32.5995983 9.50231107,33.2237994 9.56635939,33.9293068 Z M12.2314723,34.9577982 C15.809713,34.5530278 25.9756669,33.1817059 32.1056183,30.1210396 C32.8428927,31.4745958 34.2949209,33.4962072 36.7971178,34.6511394 L35.7793725,45.8685142 C35.6539911,47.2508797 34.8560225,48.4787954 33.6451738,49.1529327 L26.5318172,53.1127687 C25.2596354,53.8208369 23.7410034,53.8208369 22.4689814,53.1127687 L15.3556248,49.1529327 C14.1446164,48.4786354 13.3466478,47.2508797 13.2212664,45.8683542 L12.2314723,34.9577982 Z M18.9514349,60.1604799 L22.3782596,62.6131103 L18.9514349,65.3602355 L18.9514349,60.1604799 Z M14.3115254,51.5076115 L16.4244811,52.6839906 C16.4027589,52.7774607 16.3903007,52.8744519 16.3903007,52.9744842 L16.3903007,71.6709092 C14.5383299,69.3532023 12.1220631,65.2819703 12.1220631,59.8178095 C12.1220631,55.9351182 13.6293549,52.750412 14.3115254,51.5076115 Z M8.19531006,80.4334129 L4.01236375,80.4334129 C3.21215904,80.433573 2.56113422,79.7812027 2.56113422,78.9793443 L2.56113422,68.0298958 C2.56113422,67.6760218 2.62662003,67.3339916 2.74784865,67.0169294 L7.13795374,70.5363035 C7.80974236,71.0748771 8.19515033,71.8784961 8.19515033,72.7405339 L8.19515033,80.4334129 L8.19531006,80.4334129 Z M23.2196725,80.433573 L10.7562846,80.433573 L10.7562846,72.740854 C10.7562846,71.0947235 10.0206073,69.5609492 8.73788398,68.5326178 L4.66674272,65.2690061 L9.81887908,63.1177529 C11.0843525,71.1440194 16.606883,75.6633958 16.8709027,75.875144 C17.1024988,76.0608038 17.3855253,76.1563546 17.6709476,76.1563546 C17.859419,76.1563546 18.0491681,76.1145811 18.2255007,76.0297538 C18.6690473,75.816085 18.9512752,75.3665001 18.9512752,74.8732211 L18.9512752,68.6464145 L23.2196725,65.2246718 L23.2196725,80.433573 L23.2196725,80.433573 Z M18.9514349,57.0068236 L18.9514349,54.0906839 L21.2250704,55.3563717 C22.2504824,55.9271157 23.3752412,56.2126477 24.5001597,56.2126477 C25.6250782,56.2126477 26.749837,55.9272757 27.775249,55.3563717 L30.0488846,54.0906839 L30.0488846,57.0068236 L24.5001597,60.9783434 L18.9514349,57.0068236 Z M38.2440349,72.7405339 L38.2440349,80.4334129 L25.780647,80.4334129 L25.780647,65.2246718 L29.3662349,68.0990381 C29.8377327,68.4769199 30.4243898,68.6800253 31.0215885,68.6800253 C31.156074,68.6800253 31.2911984,68.669782 31.4253644,68.6488153 C32.1564097,68.5350186 32.8107887,68.1160036 33.2212729,67.4993249 L36.7983956,62.1225522 L44.3335767,65.2688461 L40.2624355,68.5324578 C38.9797121,69.5606291 38.2440349,71.0945634 38.2440349,72.7405339 Z M46.4391852,78.9793443 C46.4391852,79.7812027 45.7881604,80.433573 44.9879557,80.433573 L40.8050094,80.433573 L40.8050094,72.740854 C40.8050094,71.8786561 41.1904174,71.0751972 41.862206,70.5366236 L46.2524708,67.0172495 C46.3736994,67.3343117 46.4391852,67.6765019 46.4391852,68.0302159 L46.4391852,78.9793443 Z" id="Shape"></path>
                            <path d="M75.004072,4.63263232 C71.1971492,1.18753063 66.0767256,-0.460541309 60.9541869,0.111450138 C52.6608938,1.03742192 45.9954433,7.79609522 45.1054583,16.1816312 C44.3534454,23.2664991 47.6685174,30.032571 53.6047334,33.7019315 L51.9929983,40.3691914 C51.8872414,40.8070221 52.0100821,41.2688572 52.3185668,41.5940653 C52.5671769,41.8559746 52.9083649,42 53.2601286,42 C53.3452222,42 53.4309667,41.991615 53.5158976,41.9743516 C59.43324,40.7784144 62.5638069,37.6631243 63.6457813,36.3645936 C73.2732384,36.0198204 81,27.9978006 81,18.1864785 C81,13.0211278 78.8144117,8.08085785 75.004072,4.63263232 Z M62.9991999,33.7402396 C62.5629934,33.7402396 62.1559107,33.9603881 61.9139714,34.3271926 C61.8920065,34.360404 59.9057293,37.2953334 55.0433526,38.8595549 L56.3713338,33.3655433 C56.5123972,32.7822074 56.2454018,32.1763469 55.7221492,31.8919131 C50.1738169,28.876586 47.0245393,22.8204477 47.6992683,16.4627768 C48.4597417,9.29767553 54.154832,3.52284725 61.2405441,2.73152939 C65.6907943,2.23418126 69.960607,3.6070265 73.2636389,6.59637646 C76.5220903,9.54528091 78.390896,13.7698628 78.390896,18.1866429 C78.390896,26.7628976 71.4862722,33.7402396 62.9991999,33.7402396 Z" id="Shape"></path>
                            <path d="M71.9932744,13.1979727 C71.9915129,13.1792388 71.98799,13.1608365 71.985588,13.1421026 C71.9823854,13.1178978 71.9793428,13.0933614 71.9748591,13.0693224 C71.9706956,13.0477702 71.9649308,13.0267153 71.9598066,13.0054946 C71.9548424,12.9847713 71.9503587,12.9638822 71.9444338,12.9433247 C71.9383487,12.9224356 71.9308225,12.9023755 71.9237766,12.881818 C71.9167308,12.8612605 71.9100052,12.8407029 71.9019985,12.820477 C71.8943121,12.8014116 71.8851845,12.7828435 71.8768576,12.7642754 C71.8674097,12.7437179 71.8587625,12.7229946 71.8483539,12.7027686 C71.838906,12.6845321 71.8281771,12.6672903 71.8180887,12.6495512 C71.8067193,12.6299884 71.7961505,12.6102598 71.7838202,12.5911944 C71.7710096,12.5713 71.7567577,12.5527319 71.7429863,12.5338323 C71.7316168,12.5182483 71.7212082,12.5021671 71.709038,12.4870805 C71.6552333,12.4192739 71.5951834,12.3569382 71.5296889,12.3015655 C71.515437,12.2892973 71.5002244,12.2788528 71.4856523,12.2675793 C71.4667566,12.2528243 71.4483413,12.2377377 71.428805,12.224309 C71.4110302,12.2120408 71.3926149,12.2014305 71.3745199,12.190157 C71.3567451,12.1792151 71.3392906,12.1676101 71.3208753,12.1573313 C71.3024599,12.1470526 71.2834041,12.1384317 71.2645084,12.1291476 C71.2452924,12.1196978 71.226717,12.1100822 71.2070206,12.1014613 C71.1887654,12.0936693 71.1700298,12.0872037 71.1516145,12.0804064 C71.1307972,12.0726145 71.1099799,12.0643251 71.088522,12.0575279 C71.0702669,12.0518911 71.0515313,12.0475807 71.0329558,12.0427729 C71.0108574,12.0369704 70.9890793,12.0305047 70.9666607,12.0258627 C70.9458434,12.0215522 70.9247058,12.0190654 70.9038885,12.0159155 C70.8833915,12.0127656 70.8633748,12.0087867 70.8423974,12.0066315 C70.8054066,12.0029842 70.7684158,12.0013263 70.7314251,12.0008289 C70.7263008,12.0008289 70.7213367,12 70.7162124,12 L65.2386974,12 C64.5297879,12 63.9549099,12.5950075 63.9549099,13.3291097 C63.9549099,14.063212 64.5296278,14.6582195 65.2386974,14.6582195 L67.6169952,14.6582195 L62.49994,19.9559245 L60.6689774,18.0603226 C60.1676004,17.5412453 59.3547645,17.5412453 58.8535477,18.0603226 L53.3760327,23.7312128 C52.8746558,24.2502901 52.8746558,25.091822 53.3760327,25.6107335 C53.6266411,25.8701892 53.9552344,26 54.2838276,26 C54.6124209,26 54.9410141,25.870355 55.1916225,25.6107335 L59.7613426,20.8796864 L61.5923052,22.7752883 C62.0936821,23.2943656 62.9065181,23.2943656 63.4077349,22.7752883 L69.4324249,16.5379059 L69.4324249,19.0001658 C69.4324249,19.7342681 70.0071428,20.3292755 70.7162124,20.3292755 C71.4252821,20.3292755 72,19.7342681 72,19.0001658 L72,13.3296071 C71.9996797,13.2856737 71.9974379,13.2417403 71.9932744,13.1979727 Z" id="Shape"></path>
                        </g>
                    </g>
                </g>
            </g>
        </g>
    </g>
</svg>